<svg xmlns="http://www.w3.org/2000/svg" xmlns:xlink="http://www.w3.org/1999/xlink" width="40" zoomAndPan="magnify" viewBox="0 0 30 108.749999" height="145" preserveAspectRatio="xMidYMid meet" version="1.0"><defs><clipPath id="42d103f2cd"><path d="M 12 0 L 18 0 L 18 108.5 L 12 108.5 Z M 12 0 " clip-rule="nonzero"/></clipPath><clipPath id="57c97363ec"><path d="M 0.0351562 0 L 29.964844 0 L 29.964844 29.925781 L 0.0351562 29.925781 Z M 0.0351562 0 " clip-rule="nonzero"/></clipPath><clipPath id="7b636cb6aa"><path d="M 15 29.925781 C 23.265625 29.925781 29.964844 23.226562 29.964844 14.960938 C 29.964844 6.695312 23.265625 -0.0078125 15 -0.0078125 C 6.734375 -0.0078125 0.0351562 6.695312 0.0351562 14.960938 C 0.0351562 23.226562 6.734375 29.925781 15 29.925781 Z M 15 29.925781 " clip-rule="nonzero"/></clipPath><clipPath id="542bcc3fdf"><path d="M 9.015625 8.972656 L 20.984375 8.972656 L 20.984375 20.945312 L 9.015625 20.945312 Z M 9.015625 8.972656 " clip-rule="nonzero"/></clipPath><clipPath id="43f22f50db"><path d="M 15 20.945312 C 18.304688 20.945312 20.984375 18.265625 20.984375 14.960938 C 20.984375 11.652344 18.304688 8.972656 15 8.972656 C 11.695312 8.972656 9.015625 11.652344 9.015625 14.960938 C 9.015625 18.265625 11.695312 20.945312 15 20.945312 Z M 15 20.945312 " clip-rule="nonzero"/></clipPath></defs><g clip-path="url(#42d103f2cd)"><path stroke-linecap="butt" transform="matrix(0, 0.74828, -0.74828, 0, 17.248586, -16.15022)" fill="none" stroke-linejoin="miter" d="M 0.00238149 2.999786 L 165.867179 2.999786 " stroke="#0b0a07" stroke-width="6" stroke-opacity="1" stroke-miterlimit="4"/></g><g clip-path="url(#57c97363ec)"><g clip-path="url(#7b636cb6aa)"><path fill="#0b0a07" d="M 29.964844 29.925781 L 0.0351562 29.925781 L 0.0351562 -0.0078125 L 29.964844 -0.0078125 Z M 29.964844 29.925781 " fill-opacity="1" fill-rule="nonzero"/></g></g><g clip-path="url(#542bcc3fdf)"><g clip-path="url(#43f22f50db)"><path fill="#dfd2b9" d="M 20.984375 20.945312 L 9.015625 20.945312 L 9.015625 8.972656 L 20.984375 8.972656 Z M 20.984375 20.945312 " fill-opacity="1" fill-rule="nonzero"/></g></g></svg>